# xmcd CD database file
#
# Track frame offsets:
#	150
#	13907
#	26175
#	39362
#	50949
#	63212
#	73703
#	85885
#	101485
#	112733
#	125096
#	137056
#	151414
#	162704
#	176097
#	186446
#	198133
#	210492
#	217478
#	230016
#
# Disc length: 3249 seconds
#
# Revision: 1
# Processed by: cddbd v1.5.2PL0 Copyright (c) Steve Scherf et al.
# Submitted via: CDex 1.99.1
#
DISCID=310caf14
DTITLE=Dave Brubeck - Lullaby In Rhythm CD2
DYEAR=2006
DGENRE=Jazz
TTITLE0=The Way You Look Tonight
TTITLE1=What Is Tis Thing Called Love?
TTITLE2=You Stepped Out Of A Dream
TTITLE3=I Didn't Know What Time It Was
TTITLE4=Let's Fall In Love
TTITLE5=Perfidia
TTITLE6=S'Wonderful
TTITLE7=September Song
TTITLE8=Spring Is Here
TTITLE9=Sweet Georgia Brown
TTITLE10=That Old Black Magic
TTITLE11=Too Marvellous For Words
TTITLE12=Undecided
TTITLE13=Blue Moon
TTITLE14=I Hear A Rhapsody
TTITLE15=Indiana
TTITLE16=Laura
TTITLE17=Rondo
TTITLE18=Tea For Two
TTITLE19=You Go To My Head
EXTD=YEAR: 2006
EXTT0=
EXTT1=
EXTT2=
EXTT3=
EXTT4=
EXTT5=
EXTT6=
EXTT7=
EXTT8=
EXTT9=
EXTT10=
EXTT11=
EXTT12=
EXTT13=
EXTT14=
EXTT15=
EXTT16=
EXTT17=
EXTT18=
EXTT19=
PLAYORDER=
